<?xml version="1.0" standalone="no"?>
<!DOCTYPE svg PUBLIC "-//W3C//DTD SVG 1.1//EN" "http://www.w3.org/Graphics/SVG/1.1/DTD/svg11.dtd" >
<svg xmlns="http://www.w3.org/2000/svg">
<metadata></metadata>
<defs>
<font id="kohinoor_devanagaridemi" horiz-adv-x="1259" >
<font-face units-per-em="2048" ascent="1638" descent="-410" />
<missing-glyph horiz-adv-x="585" />
<glyph unicode="&#xfb01;" horiz-adv-x="1249" d="M51 977v149h185v115q0 338 444 338q109 0 214 -17t159 -46l-52 -156q-53 21 -146 37t-191 16q-127 0 -176.5 -44t-49.5 -136v-107h652v-1126h-203v977h-453v-977h-203v977h-180z" />
<glyph unicode="&#xfb02;" horiz-adv-x="1323" d="M51 977v149h185v115q0 338 444 338q137 0 245.5 -23.5t164.5 -56.5v-1206q0 -70 25.5 -101.5t82.5 -31.5q32 0 80 16v-166q-63 -26 -141 -26q-123 0 -186.5 67t-63.5 189v1151q-99 22 -223 22q-125 0 -175.5 -44t-50.5 -136v-107h240v-149h-244v-977h-203v977h-180z" />
<glyph horiz-adv-x="0" />
<glyph horiz-adv-x="682" />
<glyph horiz-adv-x="0" />
<glyph horiz-adv-x="0" />
<glyph unicode="&#xd;" horiz-adv-x="585" />
<glyph unicode=" "  horiz-adv-x="585" />
<glyph unicode="&#x09;" horiz-adv-x="585" />
<glyph unicode="&#xa0;" horiz-adv-x="585" />
<glyph unicode="!" horiz-adv-x="636" d="M188 135q0 61 41.5 103.5t100.5 42.5q61 0 102 -42t41 -104q0 -58 -41 -98.5t-102 -40.5q-58 0 -100 41t-42 98zM201 1466h254q-3 -88 -22.5 -476.5t-22.5 -465.5h-162q-4 102 -25 513t-22 429z" />
<glyph unicode="&#x22;" horiz-adv-x="712" d="M82 1470h219l-37 -475h-145zM412 1470h219l-37 -475h-148z" />
<glyph unicode="#" horiz-adv-x="1386" d="M72 401l14 158h242l53 315h-236l13 158h248l63 389h176l-63 -389h358l64 389h178l-64 -389h197l-15 -158h-206l-52 -315h201l-14 -158h-211l-66 -401h-176l64 401h-359l-63 -401h-178l65 401h-233zM504 559h360l51 315h-356z" />
<glyph unicode="$" horiz-adv-x="1095" d="M57 160l119 162q63 -56 157.5 -98t205.5 -42q131 0 195.5 54t64.5 141q0 43 -16 76t-52.5 61.5t-75 49t-104.5 50.5l-125 56q-145 65 -221 152.5t-76 219.5q0 150 100.5 249.5t257.5 123.5l-4 277h179l-5 -273q191 -17 314 -127l-125 -151q-47 45 -122 73.5t-153 28.5 q-110 0 -172.5 -50t-62.5 -136q0 -80 56.5 -132.5t174.5 -105.5l111 -51q65 -30 109 -54.5t89 -58t71 -69t42.5 -84.5t16.5 -107q0 -67 -23.5 -129t-69 -114.5t-119 -89.5t-165.5 -50l4 -286h-178l4 280q-236 15 -402 154z" />
<glyph unicode="%" horiz-adv-x="1720" d="M92 1049q0 190 88.5 290.5t237.5 100.5t232 -96.5t83 -286.5q0 -195 -87.5 -296.5t-237.5 -101.5t-233 97t-83 293zM254 1051q0 -131 43 -194.5t119 -63.5q79 0 116 61t37 195q0 258 -161 258q-154 0 -154 -256zM289 141l1065 1248l108 -95l-1067 -1247zM987 371 q0 189 89 289t239 100q147 0 231 -96t84 -287q0 -195 -88.5 -296t-236.5 -101q-151 0 -234.5 97t-83.5 294zM1151 373q0 -132 42.5 -196t117.5 -64q80 0 117.5 61t37.5 195q0 260 -163 260q-152 0 -152 -256z" />
<glyph unicode="&#x26;" horiz-adv-x="1417" d="M70 371q0 278 340 397q-129 143 -129 307q0 148 104 249t272 101q167 0 266 -98t99 -248q0 -130 -79 -231t-247 -152q122 -135 332 -319q47 72 71.5 171t24.5 200h181q-2 -122 -39.5 -252.5t-106.5 -227.5q53 -48 297 -239v-29h-250q-90 66 -168 133q-177 -166 -477 -166 q-124 0 -221.5 36t-154.5 95.5t-86 129t-29 143.5zM264 385q0 -104 84 -179t234 -75q203 0 325 115q-264 242 -395 389q-123 -33 -185.5 -93.5t-62.5 -156.5zM465 1075q0 -76 38 -144t83 -110q142 40 198 102t56 152q0 80 -51 133.5t-136 53.5q-84 0 -136 -50t-52 -137z" />
<glyph unicode="'" horiz-adv-x="382" d="M82 1470h219l-37 -475h-145z" />
<glyph unicode="(" horiz-adv-x="681" d="M162 602q0 171 35 334t85.5 280t113 217.5t109.5 155t83 84.5h203v-18q-71 -67 -134.5 -147t-122 -182t-100.5 -212.5t-67 -243t-25 -268.5q0 -169 37.5 -330t102 -293t142 -238t167.5 -190v-20h-203q-36 31 -82.5 85.5t-109.5 156t-113 218t-85.5 279.5t-35.5 332z" />
<glyph unicode=")" horiz-adv-x="681" d="M-106 -449q89 84 166.5 190t142 237.5t102 293t37.5 330.5t-37.5 330.5t-102.5 293.5t-141.5 238t-166.5 191v18h202q36 -30 82.5 -84.5t108.5 -155t112.5 -217t85.5 -280.5t35 -334q0 -169 -35 -332t-85.5 -279.5t-113 -217.5t-109.5 -156.5t-83 -85.5h-200v20z" />
<glyph unicode="*" horiz-adv-x="831" d="M47 1098l51 155l113 -34l141 -68l-18 156v118h164v-118l-21 -158l144 70l112 36l49 -157l-110 -37l-156 -29l111 -117l69 -94l-135 -96l-69 94l-76 137l-76 -137l-70 -96l-133 98l70 97l108 112l-155 31z" />
<glyph unicode="+" horiz-adv-x="1091" d="M59 616v170h398v402h176v-402h399v-170h-399v-401h-176v401h-398z" />
<glyph unicode="," horiz-adv-x="518" d="M100 -225q85 33 132 85.5t47 108.5q0 29 -10 52t-38.5 45.5t-41 30t-56.5 31.5q-8 5 -12 7v12q0 63 41 105.5t106 42.5q80 0 130.5 -57.5t50.5 -153.5q0 -76 -28 -145t-73 -118t-96.5 -83.5t-104.5 -52.5z" />
<glyph unicode="-" horiz-adv-x="712" d="M47 537v174h619v-174h-619z" />
<glyph unicode="." horiz-adv-x="493" d="M98 139q0 64 43 108t103 44q64 0 107.5 -43.5t43.5 -108.5q0 -60 -43.5 -102.5t-107.5 -42.5q-60 0 -103 42.5t-43 102.5z" />
<glyph unicode="/" horiz-adv-x="722" d="M-8 -291l561 1786h178l-563 -1786h-176z" />
<glyph unicode="0" horiz-adv-x="1124" d="M102 666q0 355 116.5 527.5t352.5 172.5q235 0 343 -167.5t108 -520.5t-117 -524.5t-352 -171.5q-237 0 -344 166t-107 518zM305 678q0 -267 61.5 -394.5t198.5 -127.5q142 0 198 120t56 390q0 266 -62.5 395t-199.5 129q-141 0 -196.5 -121t-55.5 -391z" />
<glyph unicode="1" horiz-adv-x="862" d="M25 1081l403 267h209v-1348h-201v774l8 369h-8l-157 -123l-142 -98z" />
<glyph unicode="2" horiz-adv-x="989" d="M68 174q72 68 254.5 270t216.5 250q66 80 96.5 150.5t30.5 146.5q0 93 -51 144t-138 51q-84 0 -129 -53t-57 -136l-205 41q25 142 127 232t276 90q180 0 282.5 -93.5t102.5 -252.5q0 -214 -184 -434q-144 -167 -190 -213q-5 -4 -90 -90.5t-103 -100.5v-8l219 6h371v-174 h-797z" />
<glyph unicode="3" horiz-adv-x="1005" d="M47 213l182 98q33 -66 93 -110.5t151 -44.5q120 0 174.5 57.5t54.5 169.5t-68 160.5t-212 48.5h-88v170h86q126 0 182.5 55.5t56.5 173.5q0 93 -48.5 147t-145.5 54q-87 0 -135.5 -47t-59.5 -123l-194 27q20 137 123.5 226t267.5 89q188 0 290.5 -91.5t102.5 -264.5 q0 -126 -57.5 -206.5t-147.5 -105.5v-6q50 -6 91.5 -24t77 -52t55.5 -90.5t20 -130.5q0 -197 -118.5 -304t-331.5 -107q-147 0 -252 66.5t-150 164.5z" />
<glyph unicode="4" horiz-adv-x="1042" d="M45 481l530 867h244v-863h189v-170h-189v-315h-192v315h-537zM252 485h375v351l16 303h-8l-137 -252z" />
<glyph unicode="5" horiz-adv-x="1056" d="M96 229l197 90q69 -163 235 -163q112 0 169 69.5t57 196.5q0 252 -232 252q-106 0 -176 -74l-190 68l57 680h678v-174h-502l-35 -398l8 -2q34 28 90 46t117 18q191 0 289 -100.5t98 -295.5q0 -212 -119.5 -336t-324.5 -124q-300 0 -416 247z" />
<glyph unicode="6" horiz-adv-x="1062" d="M113 487q0 143 39 279t105 244t145.5 193.5t168.5 144.5h271v-25q-169 -100 -279.5 -215.5t-177.5 -267.5l6 -4q67 41 191 41q180 0 284.5 -105.5t104.5 -314.5q0 -218 -120.5 -346.5t-318.5 -128.5q-419 0 -419 505zM311 494q0 -181 66 -262.5t174 -81.5q219 0 219 280 q0 137 -61 207t-179 70q-106 0 -204 -50q-15 -69 -15 -163z" />
<glyph unicode="7" horiz-adv-x="894" d="M2 1163v185h803l39 -197l-254 -483q-166 -324 -166 -615v-53h-201v55q0 303 174 666l109 219l123 221v8q-101 -6 -236 -6h-391z" />
<glyph unicode="8" horiz-adv-x="1116" d="M109 360q0 131 67 211.5t172 112.5v8q-85 20 -141.5 96.5t-56.5 202.5q0 180 112 277.5t301 97.5q191 0 297.5 -90.5t106.5 -265.5q0 -124 -56.5 -201t-146.5 -107v-8q49 -10 90 -31t76.5 -57t55.5 -93t20 -130q0 -196 -120 -298.5t-333 -102.5q-215 0 -329.5 93 t-114.5 285zM309 373q0 -108 63 -168t187 -60q248 0 248 228q0 227 -254 227q-124 0 -184 -60.5t-60 -166.5zM344 995q0 -110 54.5 -170.5t158.5 -60.5q106 0 160.5 58t54.5 171q0 94 -55.5 149.5t-159.5 55.5t-158.5 -53t-54.5 -150z" />
<glyph unicode="9" horiz-adv-x="1034" d="M74 899q0 217 122 342t320 125q146 0 240.5 -63.5t135 -173t40.5 -265.5q0 -140 -38.5 -276.5t-103.5 -246t-144 -196.5t-165 -145h-272v25q339 199 457 495l-4 6q-80 -39 -191 -39q-179 0 -288 103.5t-109 308.5zM274 928q0 -271 242 -271q110 0 203 56q12 66 12 143 q0 178 -63 258t-170 80q-224 0 -224 -266z" />
<glyph unicode=":" horiz-adv-x="493" d="M98 150q0 64 42.5 107.5t103.5 43.5q64 0 107.5 -43.5t43.5 -107.5q0 -61 -43.5 -103.5t-107.5 -42.5q-60 0 -103 43t-43 103zM98 954q0 64 43 108t103 44q64 0 107.5 -43.5t43.5 -108.5q0 -60 -43.5 -102.5t-107.5 -42.5q-60 0 -103 42.5t-43 102.5z" />
<glyph unicode=";" horiz-adv-x="518" d="M84 -229q85 31 131.5 83.5t46.5 108.5q0 29 -9.5 52t-37 44.5t-41 30t-54.5 30.5q-11 6 -16 9v12q0 63 41 105.5t107 42.5q80 0 129 -57.5t49 -153.5q0 -76 -27.5 -144.5t-72 -118t-95.5 -84.5t-104 -53zM113 956q0 64 42.5 108t102.5 44q64 0 108 -44t44 -108 q0 -60 -44 -102.5t-108 -42.5q-60 0 -102.5 42.5t-42.5 102.5z" />
<glyph unicode="&#x3c;" horiz-adv-x="1091" d="M59 625v170l973 438v-207l-452 -197l-297 -114v-8l295 -117l454 -195v-207z" />
<glyph unicode="=" horiz-adv-x="1091" d="M59 383v172h973v-172h-973zM59 848v172h973v-172h-973z" />
<glyph unicode="&#x3e;" horiz-adv-x="1091" d="M59 188v207l453 195l297 115v8l-297 116l-453 197v207l973 -436v-172z" />
<glyph unicode="?" horiz-adv-x="1026" d="M145 1348q137 137 396 137q180 0 282.5 -87t102.5 -245q0 -88 -27.5 -160.5t-71.5 -126.5t-120 -121l-254 -229q-93 33 -93 119q0 46 37 93t89 88t104.5 85t89.5 102t37 121q0 85 -50.5 133t-140.5 48q-47 0 -87 -10.5t-70.5 -29.5t-49 -35t-38.5 -38zM397 135 q0 62 41 104t99 42q64 0 103.5 -40.5t39.5 -105.5q0 -59 -40.5 -99t-102.5 -40q-60 0 -100 39.5t-40 99.5z" />
<glyph unicode="@" horiz-adv-x="1935" d="M127 430q0 195 71.5 370t196 302t300 201.5t374.5 74.5q335 0 537 -179t202 -476q0 -173 -58 -311t-166 -217.5t-249 -79.5q-159 0 -209 108h-8q-86 -108 -239 -108q-152 0 -226.5 89t-74.5 232q0 107 28 197t76 152.5t112.5 106t136.5 63.5t148 20q75 0 149.5 -18 t123.5 -48l-64 -411q-14 -82 -14 -136q0 -90 86 -90q82 0 144.5 62.5t93 158.5t30.5 207q0 246 -154 380t-432 134q-154 0 -291 -61.5t-233.5 -165t-152.5 -243.5t-56 -293q0 -283 150.5 -429.5t437.5 -146.5q95 0 187.5 25.5t152.5 66.5l70 -145q-79 -50 -196.5 -79.5 t-244.5 -29.5q-355 0 -547 191.5t-192 525.5zM758 469q0 -102 38.5 -150.5t118.5 -48.5q60 0 110 30.5t75 74.5q0 47 10 104l47 322q-50 16 -100 16q-129 0 -214 -97.5t-85 -250.5z" />
<glyph unicode="A" d="M20 0l455 1436h307l459 -1436h-219l-121 393h-547l-123 -393h-211zM410 571h436l-123 400q-8 30 -30.5 105t-39.5 133.5t-22 82.5h-8q-5 -26 -88 -315z" />
<glyph unicode="B" d="M182 0v1436h461q91 0 164.5 -19.5t133.5 -61t93 -115t33 -173.5q0 -124 -56 -207.5t-145 -109.5v-9q119 -15 196 -97t77 -228q0 -69 -16 -128.5t-53.5 -113t-95 -91.5t-145.5 -60.5t-200 -22.5h-447zM385 176h268q142 0 208.5 57.5t66.5 172.5q0 231 -285 231h-258v-461z M385 815h227q130 0 191 56t61 171q0 218 -254 218h-225v-445z" />
<glyph unicode="C" horiz-adv-x="1177" d="M117 707q0 354 154.5 551.5t445.5 197.5q255 0 401 -133l-133 -156q-111 107 -285 107q-181 0 -276.5 -136.5t-95.5 -416.5q0 -271 99 -414t292 -143q176 0 272 96l115 -145q-52 -57 -157 -96t-255 -39t-262 51.5t-180 148.5t-101.5 228t-33.5 299z" />
<glyph unicode="D" horiz-adv-x="1339" d="M186 0v1436h396q331 0 487 -171t156 -528q0 -169 -35.5 -301t-111 -231t-200.5 -152t-296 -53h-396zM391 178h182q231 0 335 128.5t104 408.5q0 150 -29.5 255.5t-88.5 168t-139 90.5t-190 28h-174v-1079z" />
<glyph unicode="E" horiz-adv-x="1101" d="M186 0v1436h787v-179h-582v-440h508v-178h-508v-461h608v-178h-813z" />
<glyph unicode="F" horiz-adv-x="1034" d="M186 0v1436h783v-179h-576v-485h504v-178h-504v-594h-207z" />
<glyph unicode="G" horiz-adv-x="1314" d="M117 711q0 189 49 334t136.5 233.5t200.5 133t249 44.5q276 0 411 -135l-133 -152q-110 103 -289 103q-65 0 -121.5 -14.5t-111.5 -52t-93.5 -97t-62.5 -156t-24 -221.5q0 -301 102.5 -438t308.5 -137q148 0 219 45v532h207v-624q-163 -129 -469 -129q-579 0 -579 731z " />
<glyph unicode="H" horiz-adv-x="1429" d="M186 0v1436h205v-623h645v623h207v-1436h-207v635h-645v-635h-205z" />
<glyph unicode="I" horiz-adv-x="614" d="M205 0v1436h207v-1436h-207z" />
<glyph unicode="J" horiz-adv-x="827" d="M18 23l66 186q85 -51 195 -51q85 0 121 38.5t36 125.5v1114h207v-1125q0 -152 -91 -245t-278 -93q-86 0 -153 16t-103 34z" />
<glyph unicode="K" horiz-adv-x="1224" d="M186 0v1436h205v-1436h-205zM432 715v8l483 713h240l-491 -713l536 -723h-260z" />
<glyph unicode="L" horiz-adv-x="1015" d="M186 0v1436h205v-1258h592v-178h-797z" />
<glyph unicode="M" horiz-adv-x="1773" d="M186 0v1436h328l371 -951h10l371 951h321v-1436h-201v1192h-10q-41 -99 -196.5 -497t-196.5 -498h-199l-391 995h-12v-1192h-195z" />
<glyph unicode="N" horiz-adv-x="1449" d="M186 0v1436h273l428 -809q160 -316 176 -357h12q-6 88 -6 432v734h195v-1436h-267l-438 825q-139 274 -172 359h-12q10 -105 10 -416v-768h-199z" />
<glyph unicode="O" horiz-adv-x="1368" d="M117 711q0 193 41 337.5t117.5 233t180.5 131.5t236 43t233 -40.5t175 -126t112.5 -227.5t38.5 -337q0 -194 -41 -338.5t-117.5 -232.5t-181 -131t-237.5 -43t-233.5 40t-174 125.5t-111.5 227.5t-38 338zM328 727q0 -156 25 -267t73.5 -176t112.5 -94.5t149 -29.5 q84 0 146 28t109 90.5t71 170.5t24 262q0 155 -24.5 265.5t-73 175.5t-112.5 94.5t-150 29.5q-82 0 -143.5 -27.5t-109.5 -89t-72.5 -170t-24.5 -262.5z" />
<glyph unicode="P" horiz-adv-x="1169" d="M186 0v1436h435q225 0 350 -100.5t125 -315.5q0 -219 -128 -344t-386 -125h-191v-551h-205zM391 727h187q165 0 235 67.5t70 198.5q0 137 -75 199.5t-228 62.5h-189v-528z" />
<glyph unicode="Q" horiz-adv-x="1392" d="M127 711q0 193 41 337.5t118 233t181.5 131.5t237.5 43q563 0 563 -731q0 -281 -82 -451.5t-225 -230.5v-8l382 -234l-204 -116l-410 301q-22 -1 -43 -1q-179 0 -301 75q-136 85 -197 247.5t-61 403.5zM338 727q0 -155 25.5 -266.5t74.5 -176.5t113.5 -94.5t148.5 -29.5 q85 0 148 27.5t111 90t72 171t24 262.5q0 156 -25 266.5t-73.5 175.5t-113 94t-151.5 29q-66 0 -119 -16.5t-97.5 -56t-74.5 -101.5t-46.5 -156.5t-16.5 -218.5z" />
<glyph unicode="R" horiz-adv-x="1228" d="M186 0v1436h392q483 0 483 -410q0 -171 -90.5 -273t-227.5 -120v-8q48 -23 89.5 -66.5t89.5 -126.5l252 -432h-248l-254 461q-34 62 -80.5 89.5t-116.5 27.5h-84v-578h-205zM391 750h166q293 0 293 258q0 132 -75 190.5t-226 58.5h-158v-507z" />
<glyph unicode="S" horiz-adv-x="1114" d="M59 137l121 170q175 -145 367 -145q126 0 195 58.5t69 150.5q0 60 -37.5 107.5t-97 80.5t-131.5 64.5t-144 69t-131.5 83.5t-97 118.5t-37.5 164.5q0 170 130 283.5t331 113.5q127 0 228 -39t161 -96l-127 -158q-125 109 -276 109q-110 0 -174 -55.5t-64 -143.5 q0 -61 37.5 -109t97 -81.5t132 -65.5t145 -69.5t132 -83.5t97 -118t37.5 -163q0 -81 -33 -153.5t-94 -128.5t-157 -88.5t-214 -32.5q-160 0 -278 47t-187 110z" />
<glyph unicode="T" horiz-adv-x="995" d="M18 1257v179h959v-179h-375v-1257h-207v1257h-377z" />
<glyph unicode="U" horiz-adv-x="1404" d="M180 481v955h205v-920q0 -179 84 -267.5t242 -88.5q307 0 307 332v944h207v-918q0 -269 -145 -403.5t-396 -134.5q-247 0 -375.5 133.5t-128.5 367.5z" />
<glyph unicode="V" horiz-adv-x="1267" d="M18 1436h228l299 -959q4 -16 44.5 -147.5t47.5 -165.5h8q7 34 45.5 167t42.5 148l299 957h217l-469 -1436h-295z" />
<glyph unicode="W" horiz-adv-x="1916" d="M18 1436h218l204 -799q2 -9 14.5 -62.5t23 -99.5t23 -102t19.5 -98.5t8 -61.5h9q3 25 15 81.5t24.5 107t27.5 111.5t17 71l204 852h275l213 -858q3 -15 25 -105t38 -161.5t19 -96.5h8q2 25 17.5 98t42 186.5t26.5 114.5l205 822h207l-371 -1436h-275l-204 836 q-84 360 -88 393h-9q-12 -97 -80 -365l-212 -864h-277z" />
<glyph unicode="X" horiz-adv-x="1228" d="M29 0l467 735l-443 701h250l313 -529h11l307 529h235l-438 -697l469 -739h-246l-344 565h-10l-336 -565h-235z" />
<glyph unicode="Y" horiz-adv-x="1159" d="M-2 1436h233l349 -723h8l350 723h223l-479 -934v-502h-205v502z" />
<glyph unicode="Z" horiz-adv-x="1079" d="M53 176l701 1069v8h-631v183h846l32 -176l-694 -1070v-8h701v-182h-922z" />
<glyph unicode="[" horiz-adv-x="661" d="M201 -467v2138h442v-145h-260v-1848h260v-145h-442z" />
<glyph unicode="\" horiz-adv-x="722" d="M-8 1495h178l561 -1786h-176z" />
<glyph unicode="]" horiz-adv-x="661" d="M18 -322h261v1848h-261v145h443v-2138h-443v145z" />
<glyph unicode="^" horiz-adv-x="1103" d="M76 616l362 820h228l362 -818h-203l-155 369l-115 295h-8l-115 -297l-158 -369h-198z" />
<glyph unicode="_" horiz-adv-x="1015" d="M0 -94h1016v-162h-1016v162z" />
<glyph unicode="`" horiz-adv-x="1032" d="M242 1534l188 108l358 -278l-116 -90z" />
<glyph unicode="a" horiz-adv-x="1116" d="M98 281q0 187 166 279q153 85 415 85h46v113q0 119 -54.5 167t-160.5 48q-161 0 -238 -133l-145 112q144 193 387 193q401 0 401 -352v-492q0 -145 101 -145h31v-146q-39 -20 -86 -20q-154 0 -205 133h-8q-120 -143 -322 -143q-151 0 -239.5 89t-88.5 212zM299 299 q0 -69 47.5 -114.5t130.5 -45.5q80 0 145.5 38t102.5 95v224q-31 1 -60 1q-89 1 -161 -13q-94 -18 -149.5 -65.5t-55.5 -119.5z" />
<glyph unicode="b" horiz-adv-x="1161" d="M162 43v1511h200v-497h9q36 30 103.5 55t152.5 25q94 0 170.5 -30t136.5 -92.5t93.5 -169.5t33.5 -251q0 -182 -61 -318.5t-189 -216t-311 -79.5q-209 0 -338 63zM365 176q67 -26 159 -26q155 0 244.5 106.5t89.5 314.5q0 89 -15 158t-41 113t-63 72t-77 39.5t-87 11.5 q-63 0 -120.5 -26.5t-89.5 -70.5v-692z" />
<glyph unicode="c" horiz-adv-x="985" d="M100 549q0 296 134 447t358 151q124 0 211 -38t131 -93l-135 -142q-89 99 -213 99q-277 0 -277 -404q0 -415 277 -415q134 0 211 96l127 -131q-115 -137 -357 -137q-467 0 -467 567z" />
<glyph unicode="d" horiz-adv-x="1167" d="M100 512q0 156 40 276t112 193t165.5 110t205.5 37q88 0 182 -20v446h201v-1554h-154l-39 109h-8q-36 -51 -112 -90t-177 -39q-195 0 -305.5 132t-110.5 400zM307 532q0 -201 72.5 -293t187.5 -92q167 0 240 156v623q-65 30 -164 30q-166 0 -251 -100t-85 -324z" />
<glyph unicode="e" horiz-adv-x="1128" d="M100 567q0 144 38.5 256.5t106.5 182t156.5 105.5t192.5 36q201 0 311.5 -120.5t110.5 -326.5q0 -101 -10 -196h-705q9 -185 89 -268.5t243 -83.5q79 0 148.5 27.5t109.5 64.5l90 -152q-142 -108 -373 -108q-254 0 -381 140.5t-127 442.5zM305 655h514q2 16 2 56 q0 270 -239 270q-116 0 -193 -81t-84 -245z" />
<glyph unicode="f" horiz-adv-x="753" d="M51 977v149h185v144q0 140 87 225.5t259 85.5q95 0 174 -22l-35 -168q-72 20 -146 20q-73 0 -105 -35t-32 -108v-142h277v-149h-281v-977h-203v977h-180z" />
<glyph unicode="g" horiz-adv-x="1161" d="M100 545q0 176 58.5 307.5t184 209t306.5 77.5q219 0 350 -62v-1069q0 -219 -128.5 -332.5t-350.5 -113.5q-271 0 -395 129l117 157q100 -114 293 -114q140 0 203 66.5t63 209.5v90h-8q-35 -31 -102.5 -56.5t-155.5 -25.5q-91 0 -167 28t-137.5 88t-96 164.5t-34.5 246.5 zM305 561q0 -373 279 -373q63 0 120.5 26t94.5 71v655q-73 29 -166 29q-153 0 -240.5 -103.5t-87.5 -304.5z" />
<glyph unicode="h" horiz-adv-x="1198" d="M162 0v1554h203v-548h8q45 51 124.5 94t192.5 43q164 0 258 -97t94 -272v-774h-202v737q0 105 -53 166.5t-154 61.5q-93 0 -164.5 -52t-103.5 -125v-788h-203z" />
<glyph unicode="i" horiz-adv-x="595" d="M162 1444q0 59 38.5 98t94.5 39q59 0 97 -38.5t38 -98.5q0 -56 -38.5 -93.5t-96.5 -37.5q-56 0 -94.5 38t-38.5 93zM201 0v1126h202v-1126h-202z" />
<glyph unicode="j" horiz-adv-x="540" d="M-55 -287q55 20 92 44.5t69.5 67.5t48 111.5t15.5 165.5v1024h203v-1030q0 -435 -361 -549zM131 1444q0 59 38.5 98t94.5 39q59 0 97 -38.5t38 -98.5q0 -56 -38.5 -93.5t-96.5 -37.5q-56 0 -94.5 38t-38.5 93z" />
<glyph unicode="k" horiz-adv-x="1069" d="M162 0v1554h203v-1554h-203zM387 584v8l377 534h244l-392 -530v-8l410 -588h-250z" />
<glyph unicode="l" horiz-adv-x="606" d="M170 240v1314h201v-1261q0 -70 26.5 -101.5t83.5 -31.5q32 0 80 16v-166q-67 -26 -143 -26q-121 0 -184.5 67t-63.5 189z" />
<glyph unicode="m" horiz-adv-x="1796" d="M162 0v1126h160l38 -114h9q41 56 114.5 97.5t178.5 41.5q219 0 292 -172h9q41 73 126 122.5t205 49.5q168 0 257 -94.5t89 -280.5v-776h-202v737q0 118 -53 178t-146 60q-84 0 -148.5 -50t-89.5 -120v-805h-202v723q0 123 -52.5 187.5t-152.5 64.5q-86 0 -147.5 -53.5 t-81.5 -128.5v-793h-203z" />
<glyph unicode="n" horiz-adv-x="1198" d="M162 0v1126h155l41 -114h9q42 51 125.5 95t189.5 44q170 0 263.5 -94t96.5 -279v-778h-202v733q0 116 -56 179t-161 63q-91 0 -160 -51t-98 -131v-793h-203z" />
<glyph unicode="o" horiz-adv-x="1163" d="M100 559q0 134 27 239.5t84.5 184.5t152.5 121.5t224 42.5q130 0 223.5 -41t148 -119t79 -180.5t24.5 -237.5q0 -134 -27 -239t-84.5 -184.5t-152.5 -121.5t-224 -42q-131 0 -224 40.5t-147.5 119t-79 180.5t-24.5 237zM309 571q0 -214 66.5 -317.5t212.5 -103.5 q144 0 205 98t61 309q0 216 -66 319t-213 103q-140 0 -203 -99.5t-63 -308.5z" />
<glyph unicode="p" horiz-adv-x="1167" d="M162 -397v1523h149l43 -108h8q100 129 287 129q195 0 306.5 -136.5t111.5 -400.5q0 -293 -144.5 -452.5t-383.5 -159.5q-89 0 -177 16v-411h-200zM360 197q70 -27 162 -27q168 0 253 102t85 316q0 105 -22 183t-60.5 121.5t-84.5 64t-101 20.5q-81 0 -139.5 -39 t-92.5 -96v-645z" />
<glyph unicode="q" horiz-adv-x="1159" d="M100 524q0 135 34 245.5t100.5 193.5t173.5 128.5t245 45.5q218 0 346 -64v-1470h-196v456h-8q-35 -29 -106 -54t-161 -25t-165.5 30.5t-135.5 93.5t-93.5 170t-33.5 250zM305 543q0 -391 281 -391q64 0 122.5 25.5t92.5 68.5v692q-72 29 -172 29q-154 0 -239 -108.5 t-85 -315.5z" />
<glyph unicode="r" horiz-adv-x="774" d="M162 0v1126h155l43 -137h9q39 71 113 114.5t171 43.5q67 0 109 -10v-207q-66 16 -127 16q-82 0 -157 -33.5t-116 -95.5v-817h-200z" />
<glyph unicode="s" horiz-adv-x="983" d="M49 131l123 148q52 -55 131.5 -92t171.5 -37q100 0 151.5 43t51.5 110q0 46 -30.5 80t-80 56t-108.5 43t-118.5 48t-109 62t-80 93.5t-30.5 135.5q0 134 107 229t288 95q114 0 205 -35.5t147 -95.5l-131 -135q-39 42 -100 69t-127 27q-91 0 -139.5 -41t-48.5 -103 q0 -46 31 -80.5t80 -56.5t109 -43t119.5 -48t108.5 -62t80 -94t31 -136q0 -60 -25 -117t-73.5 -105t-131 -77.5t-186.5 -29.5q-141 0 -249 44t-167 105z" />
<glyph unicode="t" horiz-adv-x="792" d="M33 967v127l160 41l65 284h135v-293h301v-159h-301v-645q0 -81 39.5 -120.5t110.5 -39.5q108 0 168 43l53 -158q-87 -57 -270 -57q-301 0 -301 327v650h-160z" />
<glyph unicode="u" horiz-adv-x="1200" d="M156 360v766h202v-733q0 -248 222 -248q113 0 182.5 64t75.5 168v749h202v-1126h-166l-32 113h-8q-43 -53 -121.5 -94.5t-194.5 -41.5q-356 0 -362 383z" />
<glyph unicode="v" horiz-adv-x="1028" d="M18 1126h222l198 -632q52 -172 80 -301h8q21 98 80 301l197 632h207l-373 -1126h-231z" />
<glyph unicode="w" horiz-adv-x="1591" d="M23 1126h206l148 -591q45 -183 76 -359h8q26 165 69 328l160 622h234l149 -618q55 -222 70 -332h8q44 217 82 365l147 585h189l-297 -1126h-258l-207 899h-8l-224 -899h-253z" />
<glyph unicode="x" horiz-adv-x="1013" d="M29 0l360 584l-340 542h232l231 -391h8l207 391h238l-338 -544l358 -582h-233l-246 426h-8l-232 -426h-237z" />
<glyph unicode="y" horiz-adv-x="1048" d="M35 1126h223l166 -501q70 -212 119 -406h8q28 154 104 406l156 501h209l-391 -1198q-27 -83 -61.5 -145t-84 -111.5t-119 -75.5t-157.5 -26t-146 24l35 175q56 -23 111 -23q96 0 153.5 55t85.5 172z" />
<glyph unicode="z" horiz-adv-x="954" d="M74 180l540 768v8h-501v170h698l37 -180l-539 -768v-8h557v-170h-762z" />
<glyph unicode="{" horiz-adv-x="694" d="M131 518v180q184 19 184 185q0 81 -26.5 238t-26.5 245q0 313 299 313q79 0 127 -22l-24 -139q-47 14 -89 14q-129 0 -129 -170q0 -81 25 -235t25 -228q0 -109 -47.5 -184.5t-145.5 -102.5v-8q98 -28 145.5 -104t47.5 -185q0 -74 -25 -233t-25 -240q0 -170 129 -170 q38 0 89 15l24 -142q-50 -20 -119 -20q-307 0 -307 313q0 88 26.5 250.5t26.5 243.5q0 80 -43.5 127t-140.5 59z" />
<glyph unicode="|" horiz-adv-x="557" d="M203 -526v2257h149v-2257h-149z" />
<glyph unicode="}" horiz-adv-x="694" d="M6 -455l25 142q51 -15 88 -15q129 0 129 170q0 81 -24.5 240t-24.5 233q0 109 47 185t145 104v8q-97 27 -144.5 102.5t-47.5 184.5q0 74 24.5 228t24.5 235q0 170 -129 170q-41 0 -88 -14l-25 139q48 22 127 22q299 0 299 -313q0 -88 -26.5 -245t-26.5 -238 q0 -166 184 -185v-180q-97 -12 -140.5 -59t-43.5 -127q0 -81 26.5 -243.5t26.5 -250.5q0 -313 -307 -313q-69 0 -119 20z" />
<glyph unicode="~" horiz-adv-x="1101" d="M45 543q0 120 65.5 194t182.5 74q62 0 136.5 -23.5t131.5 -52.5t123 -52.5t113 -23.5q94 0 94 111q0 26 -6 53q6 -1 70.5 -9.5t99.5 -14.5q1 -10 1 -21.5t-0.5 -25.5t-0.5 -23q-6 -112 -69.5 -178t-174.5 -66q-64 0 -139 23.5t-132 51.5t-122.5 51.5t-112.5 23.5 q-43 0 -67.5 -27t-24.5 -82q0 -17 4 -53q-79 7 -168 25q-4 24 -4 45z" />
<glyph unicode="&#xa1;" horiz-adv-x="602" d="M160 1010q0 57 41 97t102 40q58 0 98.5 -40t40.5 -97q0 -63 -40 -104.5t-99 -41.5q-62 0 -102.5 41.5t-40.5 104.5zM174 -322q4 101 25 491.5t22 416.5h164q4 -93 24.5 -463t24.5 -445h-260z" />
<glyph unicode="&#xa2;" horiz-adv-x="980" d="M98 549q0 150 37 265.5t103 187.5t154.5 108.5t195.5 36.5q81 0 160 -21l92 256h129l-111 -305q40 -27 70 -67l-146 -140l-258 -710q27 -6 60 -6q129 0 211 100l125 -135q-17 -22 -42 -42.5t-67 -43.5t-106.5 -37t-141.5 -14q-59 0 -100 8l-94 -256h-127l104 289 q-248 114 -248 526zM303 569q0 -258 109 -356h4l270 745q-46 19 -106 19q-130 0 -203.5 -98t-73.5 -310z" />
<glyph unicode="&#xa3;" horiz-adv-x="1130" d="M109 168q71 36 108.5 96.5t44.5 169.5l12 193h-155v166h168l16 231q17 199 136 305.5t300 106.5q223 0 342 -144l-133 -139q-84 107 -231 107q-190 0 -209 -230l-19 -237h416v-166h-428l-12 -181q-13 -191 -119 -262v-8h717v-176h-918z" />
<glyph unicode="&#xa4;" horiz-adv-x="1099" d="M51 297l119 119q-72 109 -72 250q0 136 76 249l-123 123l123 121l123 -123q112 76 258 76q136 0 250 -70l119 117l123 -121l-119 -118q73 -110 73 -246q0 -141 -79 -254l125 -123l-123 -121l-125 123q-110 -72 -254 -72t-250 68l-121 -119zM270 670q0 -119 79 -200 t200 -81q122 0 201 80t79 201q0 120 -79 200t-201 80q-121 0 -200 -80.5t-79 -199.5z" />
<glyph unicode="&#xa5;" horiz-adv-x="1114" d="M4 1421h234l200 -440l119 -309h8l121 311l201 438h223l-365 -751h308v-170h-394v-500h-206v500h-398v170h310z" />
<glyph unicode="&#xa6;" horiz-adv-x="563" d="M207 -336v709h149v-709h-149zM207 819v709h149v-709h-149z" />
<glyph unicode="&#xa7;" horiz-adv-x="1167" d="M145 936q0 112 43 216t119.5 183.5t192 127.5t252.5 48q92 0 163 -18l-32 -147q-70 24 -150 24q-131 0 -204.5 -58.5t-73.5 -154.5q0 -59 33 -117t86.5 -108t117.5 -102t128 -110.5t117.5 -121t86.5 -145.5t33 -174q0 -111 -43.5 -211.5t-122.5 -177t-198.5 -121.5 t-262.5 -45q-100 0 -186 22l30 152q84 -31 168 -31q80 0 140 19.5t91.5 53t46.5 70t15 76.5q0 59 -32.5 113.5t-84.5 101t-115 94t-126 102.5t-115 116t-84.5 144.5t-32.5 178.5zM276 944q0 -64 24.5 -123.5t64.5 -105t92 -93t106 -87t106 -86t93.5 -91.5t68.5 -103t29 -120 q2 -31 -8 -78h10q62 99 62 222q0 76 -31.5 144t-82.5 120.5t-112.5 103t-123.5 100t-113.5 100.5t-85.5 116t-37 137q-3 30 6 65h-10q-58 -88 -58 -221z" />
<glyph unicode="&#xa8;" horiz-adv-x="1032" d="M182 1458q0 51 34 85t85 34q52 0 86.5 -34t34.5 -85q0 -50 -34.5 -84.5t-86.5 -34.5q-51 0 -85 34.5t-34 84.5zM610 1458q0 51 34 85t85 34q52 0 85.5 -34t33.5 -85q0 -50 -33.5 -84.5t-85.5 -34.5q-51 0 -85 34.5t-34 84.5z" />
<glyph unicode="&#xa9;" horiz-adv-x="1701" d="M100 705q0 158 57.5 296t157.5 235.5t239.5 153.5t297.5 56q215 0 385.5 -93.5t266 -262t95.5 -381.5q0 -209 -97.5 -378.5t-269 -265.5t-382.5 -96q-161 0 -300.5 55t-238.5 152t-155 234t-56 295zM262 709q0 -126 44 -235t121.5 -186.5t187.5 -122t237 -44.5 q256 0 422 165t166 419q0 259 -165 424t-425 165t-424 -164t-164 -421zM522 705q0 198 96 310.5t259 112.5q94 0 152 -27.5t85 -62.5l-88 -110q-56 69 -154 69q-90 0 -140 -70t-50 -216q0 -285 195 -285q92 0 149 68l84 -111q-90 -90 -242 -90q-166 0 -256 107t-90 305z" />
<glyph unicode="&#xab;" horiz-adv-x="1071" d="M78 561l342 461l131 -102l-256 -359l256 -358l-131 -101zM520 561l342 461l131 -102l-256 -359l256 -358l-131 -101z" />
<glyph unicode="&#xac;" horiz-adv-x="1099" d="M43 754v159h1012v-536h-164v377h-848z" />
<glyph unicode="&#xad;" horiz-adv-x="712" d="M47 537v174h619v-174h-619z" />
<glyph unicode="&#xae;" horiz-adv-x="1028" d="M80 1020q0 194 124 314t312 120q189 0 311.5 -118t122.5 -312q0 -193 -123.5 -313.5t-312.5 -120.5q-190 0 -312 117.5t-122 312.5zM178 1022q0 -152 96 -247t238 -95q147 0 242.5 93.5t95.5 246.5q0 155 -96.5 248.5t-239.5 93.5q-145 0 -240.5 -92.5t-95.5 -247.5z M375 805v457h147q72 0 115 -34t43 -102q0 -110 -84 -129l113 -192h-111l-88 168h-43v-168h-92zM467 1051h47q39 0 55.5 16t16.5 51q0 64 -66 64h-53v-131z" />
<glyph unicode="&#xaf;" horiz-adv-x="1032" d="M199 1352v159h632v-159h-632z" />
<glyph unicode="&#xb0;" horiz-adv-x="749" d="M72 1143q0 131 87.5 215t219.5 84q133 0 216 -80t83 -211t-87 -215t-220 -84q-132 0 -215.5 80t-83.5 211zM205 1149q0 -77 49 -129.5t125 -52.5q75 0 120.5 50.5t45.5 127.5q0 76 -49 128t-125 52q-75 0 -120.5 -50t-45.5 -126z" />
<glyph unicode="&#xb1;" horiz-adv-x="1091" d="M59 61v170h398v385h-398v170h398v402h176v-402h399v-170h-399v-385h399v-170h-973z" />
<glyph unicode="&#xb2;" horiz-adv-x="735" d="M51 915q57 53 188 182t156 165q78 91 78 161q0 57 -30.5 88t-88.5 31q-54 0 -87 -36t-40 -87l-157 33q19 94 91 152.5t199 58.5q132 0 202.5 -61.5t70.5 -165.5q0 -125 -119 -260q-14 -17 -70 -76t-73 -74l-121 -108q99 6 160 6h243v-125h-577z" />
<glyph unicode="&#xb3;" horiz-adv-x="735" d="M57 934l133 72q25 -46 68 -74.5t100 -28.5q80 0 115 34.5t35 100.5t-46 97.5t-147 31.5h-65v115h69q87 0 123.5 35t36.5 104q0 53 -33 88t-98 35q-53 0 -85 -30.5t-40 -77.5l-151 20q12 91 86.5 149t193.5 58q134 0 208.5 -56.5t74.5 -168.5q0 -149 -125 -203 q69 -11 110.5 -58t41.5 -130q0 -127 -84.5 -196t-237.5 -69q-107 0 -178 43t-105 109z" />
<glyph unicode="&#xb4;" horiz-adv-x="1032" d="M242 1364l358 278l188 -108l-430 -260z" />
<glyph unicode="&#xb5;" horiz-adv-x="1255" d="M162 -397v1523h203v-720q0 -259 221 -259q125 0 190.5 70t65.5 207v702h202v-796q0 -90 26.5 -130t84.5 -40q18 0 33 6v-156q-40 -18 -90 -18q-81 0 -136.5 39.5t-74.5 122.5h-8q-33 -72 -108 -121t-202 -49q-124 0 -207 71v-452h-200z" />
<glyph unicode="&#xb6;" horiz-adv-x="1198" d="M61 1018q0 204 119 311t324 107h112l-2 -1330q0 -309 -225 -481l-110 109q48 41 75 70t54.5 75t39 107t11.5 145v508h-47q-165 0 -258 94t-93 285zM815 0v1436h154v-1436h-154z" />
<glyph unicode="&#xb7;" horiz-adv-x="503" d="M104 717q0 64 42.5 107.5t103.5 43.5q64 0 107.5 -43t43.5 -108q0 -61 -43.5 -103.5t-107.5 -42.5q-60 0 -103 43t-43 103z" />
<glyph unicode="&#xb8;" horiz-adv-x="1032" d="M373 -395q127 57 127 157q0 66 -51 125v9h172q36 -52 36 -134q0 -85 -52.5 -155t-168.5 -107z" />
<glyph unicode="&#xb9;" horiz-adv-x="614" d="M23 1483l290 166h164v-850h-162v489l7 213h-7q-75 -60 -100 -74l-113 -71z" />
<glyph unicode="&#xbb;" horiz-adv-x="1071" d="M78 203l256 358l-256 359l129 102l344 -461l-344 -459zM520 203l256 358l-256 359l131 102l342 -461l-342 -459z" />
<glyph unicode="&#xbf;" horiz-adv-x="854" d="M80 -10q0 128 51.5 217t165.5 190l254 230q92 -32 92 -119q0 -40 -26.5 -79.5t-66 -72t-85.5 -71.5t-85.5 -76t-66 -87t-26.5 -104q0 -85 50.5 -132.5t139.5 -47.5q47 0 87 10t71 29.5t49.5 35t40.5 38.5l133 -156q-142 -137 -395 -137q-179 0 -281 87t-102 245z M324 1008q0 59 40.5 99t102.5 40q60 0 100.5 -39.5t40.5 -99.5q0 -62 -41 -104t-100 -42q-63 0 -103 41t-40 105z" />
<glyph unicode="&#xc0;" d="M20 0l455 1436h307l459 -1436h-219l-121 393h-547l-123 -393h-211zM184 1829l189 108l358 -278l-117 -90zM410 571h436l-123 400q-8 30 -30.5 105t-39.5 133.5t-22 82.5h-8q-5 -26 -88 -315z" />
<glyph unicode="&#xc1;" d="M20 0l455 1436h307l459 -1436h-219l-121 393h-547l-123 -393h-211zM410 571h436l-123 400q-8 30 -30.5 105t-39.5 133.5t-22 82.5h-8q-5 -26 -88 -315zM512 1681l358 279l189 -109l-430 -260z" />
<glyph unicode="&#xc2;" d="M20 0l455 1436h307l459 -1436h-219l-121 393h-547l-123 -393h-211zM225 1710l402 254l403 -254l-76 -121l-327 189l-330 -189zM410 571h436l-123 400q-8 30 -30.5 105t-39.5 133.5t-22 82.5h-8q-5 -26 -88 -315z" />
<glyph unicode="&#xc3;" d="M20 0l455 1436h307l459 -1436h-219l-121 393h-547l-123 -393h-211zM268 1769q24 35 76.5 68t130.5 33q61 0 158.5 -37t136.5 -37q50 0 80.5 18t56.5 52l80 -123q-19 -34 -71.5 -69.5t-129.5 -35.5q-51 0 -151.5 38t-140.5 38q-49 0 -82.5 -15.5t-63.5 -51.5zM410 571h436 l-123 400q-8 30 -30.5 105t-39.5 133.5t-22 82.5h-8q-5 -26 -88 -315z" />
<glyph unicode="&#xc4;" d="M20 0l455 1436h307l459 -1436h-219l-121 393h-547l-123 -393h-211zM295 1776q0 51 34 84.5t85 33.5q52 0 86.5 -33.5t34.5 -84.5q0 -50 -34.5 -84.5t-86.5 -34.5q-51 0 -85 34.5t-34 84.5zM410 571h436l-123 400q-8 30 -30.5 105t-39.5 133.5t-22 82.5h-8 q-5 -26 -88 -315zM723 1776q0 51 34 84.5t85 33.5q52 0 85.5 -33.5t33.5 -84.5q0 -50 -33.5 -84.5t-85.5 -34.5q-51 0 -85 34.5t-34 84.5z" />
<glyph unicode="&#xc5;" d="M20 0l455 1436h307l459 -1436h-219l-121 393h-547l-123 -393h-211zM391 1776q0 102 66.5 167.5t173.5 65.5q106 0 169.5 -60.5t63.5 -160.5q0 -102 -66.5 -169t-172.5 -67t-170 61.5t-64 162.5zM410 571h436l-123 400q-8 30 -30.5 105t-39.5 133.5t-22 82.5h-8 q-5 -26 -88 -315zM510 1784q0 -55 31.5 -88t87.5 -33t86 31t30 86t-31.5 88t-88.5 33q-55 0 -85 -32t-30 -85z" />
<glyph unicode="&#xc6;" horiz-adv-x="1785" d="M-10 0l768 1436h899v-179h-567v-440h493v-178h-493v-461h593v-178h-788v422h-463l-225 -422h-217zM524 598h371v678h-8z" />
<glyph unicode="&#xc7;" horiz-adv-x="1177" d="M117 707q0 354 154.5 551.5t445.5 197.5q255 0 401 -133l-133 -156q-111 107 -285 107q-181 0 -276.5 -136.5t-95.5 -416.5q0 -271 99 -414t292 -143q176 0 272 96l115 -145q-52 -57 -157 -96t-255 -39t-262 51.5t-180 148.5t-101.5 228t-33.5 299zM516 -395 q127 57 127 157q0 66 -51 125v9h172q37 -53 37 -134q0 -85 -52.5 -155t-168.5 -107z" />
<glyph unicode="&#xc8;" horiz-adv-x="1101" d="M156 1851l188 109l358 -279l-116 -90zM186 0v1436h787v-179h-582v-440h508v-178h-508v-461h608v-178h-813z" />
<glyph unicode="&#xc9;" horiz-adv-x="1101" d="M186 0v1436h787v-179h-582v-440h508v-178h-508v-461h608v-178h-813zM463 1681l358 279l189 -109l-430 -260z" />
<glyph unicode="&#xca;" horiz-adv-x="1101" d="M168 1710l401 254l404 -254l-76 -121l-328 189l-329 -189zM186 0v1436h787v-179h-582v-440h508v-178h-508v-461h608v-178h-813z" />
<glyph unicode="&#xcb;" horiz-adv-x="1101" d="M186 0v1436h787v-179h-582v-440h508v-178h-508v-461h608v-178h-813zM246 1776q0 51 34 84.5t85 33.5q52 0 86 -33.5t34 -84.5q0 -50 -34 -84.5t-86 -34.5q-51 0 -85 34.5t-34 84.5zM674 1776q0 51 34 84.5t85 33.5q52 0 85 -33.5t33 -84.5q0 -50 -33 -84.5t-85 -34.5 q-51 0 -85 34.5t-34 84.5z" />
<glyph unicode="&#xcc;" horiz-adv-x="614" d="M-113 1851l189 109l358 -279l-117 -90zM205 0v1436h207v-1436h-207z" />
<glyph unicode="&#xcd;" horiz-adv-x="614" d="M170 1681l358 279l189 -109l-430 -260zM205 0v1436h207v-1436h-207z" />
<glyph unicode="&#xce;" horiz-adv-x="614" d="M-94 1710l401 254l404 -254l-76 -121l-328 189l-330 -189zM205 0v1436h207v-1436h-207z" />
<glyph unicode="&#xcf;" horiz-adv-x="614" d="M-25 1776q0 51 34 84.5t85 33.5q52 0 86.5 -33.5t34.5 -84.5q0 -50 -34.5 -84.5t-86.5 -34.5q-51 0 -85 34.5t-34 84.5zM205 0v1436h207v-1436h-207zM403 1776q0 51 34 84.5t85 33.5q52 0 85.5 -33.5t33.5 -84.5q0 -50 -33.5 -84.5t-85.5 -34.5q-51 0 -85 34.5t-34 84.5z " />
<glyph unicode="&#xd0;" horiz-adv-x="1353" d="M45 668v145h154v623h397q330 0 485.5 -170.5t155.5 -528.5q0 -169 -35.5 -301t-110 -231t-199.5 -152t-296 -53h-397v668h-154zM406 178h182q231 0 334.5 128.5t103.5 408.5q0 150 -29.5 255.5t-88.5 168t-139 90.5t-189 28h-174v-444h305v-145h-305v-490z" />
<glyph unicode="&#xd1;" horiz-adv-x="1449" d="M186 0v1436h273l428 -809q160 -316 176 -357h12q-6 88 -6 432v734h195v-1436h-267l-438 825q-139 274 -172 359h-12q10 -105 10 -416v-768h-199zM365 1769q24 35 76 68t130 33q61 0 158.5 -37t136.5 -37q50 0 81 18.5t57 51.5l79 -123q-19 -34 -71.5 -69.5t-128.5 -35.5 q-51 0 -152 38t-141 38q-49 0 -82.5 -15.5t-63.5 -51.5z" />
<glyph unicode="&#xd2;" horiz-adv-x="1390" d="M129 711q0 193 41 337.5t118 233t181 131.5t236 43t233 -40.5t175 -126t112.5 -227.5t38.5 -337q0 -194 -41 -338.5t-118 -232.5t-181.5 -131t-237.5 -43t-233.5 40t-174 125.5t-111.5 227.5t-38 338zM276 1851l189 109l358 -279l-116 -90zM340 727q0 -156 25 -267 t73.5 -176t112.5 -94.5t149 -29.5q67 0 119.5 17t96.5 56.5t73.5 102.5t45.5 157.5t16 217.5q0 155 -25 265.5t-73 175.5t-112.5 94.5t-150.5 29.5q-82 0 -143.5 -27.5t-109.5 -89t-72.5 -170t-24.5 -262.5z" />
<glyph unicode="&#xd3;" horiz-adv-x="1390" d="M129 711q0 193 41 337.5t118 233t181 131.5t236 43t233 -40.5t175 -126t112.5 -227.5t38.5 -337q0 -194 -41 -338.5t-118 -232.5t-181.5 -131t-237.5 -43t-233.5 40t-174 125.5t-111.5 227.5t-38 338zM340 727q0 -156 25 -267t73.5 -176t112.5 -94.5t149 -29.5 q67 0 119.5 17t96.5 56.5t73.5 102.5t45.5 157.5t16 217.5q0 155 -25 265.5t-73 175.5t-112.5 94.5t-150.5 29.5q-82 0 -143.5 -27.5t-109.5 -89t-72.5 -170t-24.5 -262.5zM569 1681l359 279l188 -109l-430 -260z" />
<glyph unicode="&#xd4;" horiz-adv-x="1390" d="M129 711q0 193 41 337.5t118 233t181 131.5t236 43t233 -40.5t175 -126t112.5 -227.5t38.5 -337q0 -194 -41 -338.5t-118 -232.5t-181.5 -131t-237.5 -43t-233.5 40t-174 125.5t-111.5 227.5t-38 338zM293 1710l401 254l404 -254l-76 -121l-328 189l-329 -189zM340 727 q0 -156 25 -267t73.5 -176t112.5 -94.5t149 -29.5q67 0 119.5 17t96.5 56.5t73.5 102.5t45.5 157.5t16 217.5q0 155 -25 265.5t-73 175.5t-112.5 94.5t-150.5 29.5q-82 0 -143.5 -27.5t-109.5 -89t-72.5 -170t-24.5 -262.5z" />
<glyph unicode="&#xd5;" horiz-adv-x="1390" d="M129 711q0 193 41 337.5t118 233t181 131.5t236 43t233 -40.5t175 -126t112.5 -227.5t38.5 -337q0 -194 -41 -338.5t-118 -232.5t-181.5 -131t-237.5 -43t-233.5 40t-174 125.5t-111.5 227.5t-38 338zM336 1769q24 35 76.5 68t130.5 33q61 0 158.5 -37t136.5 -37 q50 0 80.5 18t56.5 52l80 -123q-19 -34 -71.5 -69.5t-129.5 -35.5q-51 0 -152 38t-141 38q-49 0 -82 -15.5t-63 -51.5zM340 727q0 -156 25 -267t73.5 -176t112.5 -94.5t149 -29.5q67 0 119.5 17t96.5 56.5t73.5 102.5t45.5 157.5t16 217.5q0 155 -25 265.5t-73 175.5 t-112.5 94.5t-150.5 29.5q-82 0 -143.5 -27.5t-109.5 -89t-72.5 -170t-24.5 -262.5z" />
<glyph unicode="&#xd6;" horiz-adv-x="1390" d="M129 711q0 193 41 337.5t118 233t181 131.5t236 43t233 -40.5t175 -126t112.5 -227.5t38.5 -337q0 -194 -41 -338.5t-118 -232.5t-181.5 -131t-237.5 -43t-233.5 40t-174 125.5t-111.5 227.5t-38 338zM340 727q0 -156 25 -267t73.5 -176t112.5 -94.5t149 -29.5 q67 0 119.5 17t96.5 56.5t73.5 102.5t45.5 157.5t16 217.5q0 155 -25 265.5t-73 175.5t-112.5 94.5t-150.5 29.5q-82 0 -143.5 -27.5t-109.5 -89t-72.5 -170t-24.5 -262.5zM362 1776q0 51 34 84.5t85 33.5q52 0 86.5 -33.5t34.5 -84.5q0 -50 -34.5 -84.5t-86.5 -34.5 q-51 0 -85 34.5t-34 84.5zM791 1776q0 51 33.5 84.5t84.5 33.5q52 0 85.5 -33.5t33.5 -84.5q0 -50 -33.5 -84.5t-85.5 -34.5q-51 0 -84.5 34.5t-33.5 84.5z" />
<glyph unicode="&#xd7;" horiz-adv-x="1091" d="M121 395l311 307l-311 308l119 116l305 -311l309 313l117 -120l-312 -308l312 -307l-117 -117l-307 312l-307 -314z" />
<glyph unicode="&#xd8;" horiz-adv-x="1390" d="M117 -16l127 194q-127 181 -127 533q0 193 42 337.5t120.5 233t184 131.5t238.5 43q196 0 326 -90l59 90h189v-4l-131 -197q131 -186 131 -530q0 -194 -42.5 -338.5t-121.5 -232.5t-185.5 -131t-240.5 -43q-199 0 -326 88l-55 -86h-188v2zM328 727q0 -218 55 -340 l532 811q-84 78 -225 78q-67 0 -121 -16.5t-100 -56t-76.5 -101.5t-47.5 -156.5t-17 -218.5zM475 238q84 -78 225 -78q85 0 149.5 28t113.5 90.5t74.5 171t25.5 261.5q0 209 -55 338z" />
<glyph unicode="&#xd9;" horiz-adv-x="1404" d="M180 481v955h205v-920q0 -179 84 -267.5t242 -88.5q307 0 307 332v944h207v-918q0 -269 -145 -403.5t-396 -134.5q-247 0 -375.5 133.5t-128.5 367.5zM270 1851l189 109l358 -279l-117 -90z" />
<glyph unicode="&#xda;" horiz-adv-x="1404" d="M180 481v955h205v-920q0 -179 84 -267.5t242 -88.5q307 0 307 332v944h207v-918q0 -269 -145 -403.5t-396 -134.5q-247 0 -375.5 133.5t-128.5 367.5zM598 1681l358 279l189 -109l-430 -260z" />
<glyph unicode="&#xdb;" horiz-adv-x="1404" d="M180 481v955h205v-920q0 -179 84 -267.5t242 -88.5q307 0 307 332v944h207v-918q0 -269 -145 -403.5t-396 -134.5q-247 0 -375.5 133.5t-128.5 367.5zM299 1710l401 254l404 -254l-76 -121l-328 189l-329 -189z" />
<glyph unicode="&#xdc;" horiz-adv-x="1404" d="M180 481v955h205v-920q0 -179 84 -267.5t242 -88.5q307 0 307 332v944h207v-918q0 -269 -145 -403.5t-396 -134.5q-247 0 -375.5 133.5t-128.5 367.5zM369 1776q0 51 33.5 84.5t84.5 33.5q52 0 86.5 -33.5t34.5 -84.5q0 -50 -34.5 -84.5t-86.5 -34.5q-51 0 -84.5 34.5 t-33.5 84.5zM797 1776q0 51 33.5 84.5t84.5 33.5q52 0 85.5 -33.5t33.5 -84.5q0 -50 -33.5 -84.5t-85.5 -34.5q-51 0 -84.5 34.5t-33.5 84.5z" />
<glyph unicode="&#xdd;" horiz-adv-x="1159" d="M-2 1436h233l349 -723h8l350 723h223l-479 -934v-502h-205v502zM475 1681l359 279l188 -109l-430 -260z" />
<glyph unicode="&#xde;" horiz-adv-x="1089" d="M186 0v1436h201v-275q18 7 85 12t103 5q97 0 175.5 -24t138.5 -74t92.5 -132.5t32.5 -193.5q0 -234 -122 -360t-360 -126q-95 0 -145 13v-281h-201zM389 463q41 -14 127 -14q285 0 285 276q0 270 -271 270q-22 0 -75.5 -5t-65.5 -9v-518z" />
<glyph unicode="&#xdf;" horiz-adv-x="1236" d="M162 0v1106q0 223 118.5 338t317.5 115q184 0 288.5 -92.5t104.5 -239.5q0 -69 -23 -130.5t-55.5 -103.5t-65.5 -77t-56 -65.5t-23 -55.5q0 -30 30 -59t74.5 -53t97 -58.5t97 -73t74.5 -100.5t30 -136q0 -67 -24.5 -126t-72 -105.5t-126 -74t-178.5 -27.5q-183 0 -301 77 l84 160q104 -69 229 -69q91 0 143 42.5t52 112.5q0 60 -43 107t-104 80.5t-122 68.5t-104 87.5t-43 119.5q0 46 24 90t58.5 81t69 75.5t58.5 88t24 103.5q0 89 -55 136t-148 47q-111 0 -171.5 -69t-60.5 -210v-1110h-198z" />
<glyph unicode="&#xe0;" horiz-adv-x="1124" d="M98 1534l189 108l358 -278l-117 -90zM100 281q0 187 166 279.5t461 84.5v113q0 119 -54.5 167t-160.5 48q-161 0 -238 -133l-145 112q144 193 387 193q402 0 402 -352v-492q0 -145 100 -145h31v-146q-39 -20 -86 -20q-154 0 -205 133h-8q-120 -143 -322 -143 q-151 0 -239.5 89t-88.5 212zM301 299q0 -69 47.5 -114.5t130.5 -45.5q80 0 145.5 38t102.5 95v224q-126 6 -220.5 -12.5t-150 -65.5t-55.5 -119z" />
<glyph unicode="&#xe1;" horiz-adv-x="1124" d="M100 281q0 187 166 279.5t461 84.5v113q0 119 -54.5 167t-160.5 48q-161 0 -238 -133l-145 112q144 193 387 193q402 0 402 -352v-492q0 -145 100 -145h31v-146q-39 -20 -86 -20q-154 0 -205 133h-8q-120 -143 -322 -143q-151 0 -239.5 89t-88.5 212zM301 299 q0 -69 47.5 -114.5t130.5 -45.5q80 0 145.5 38t102.5 95v224q-126 6 -220.5 -12.5t-150 -65.5t-55.5 -119zM420 1364l358 278l189 -108l-430 -260z" />
<glyph unicode="&#xe2;" horiz-adv-x="1124" d="M100 281q0 187 166 279.5t461 84.5v113q0 119 -54.5 167t-160.5 48q-161 0 -238 -133l-145 112q144 193 387 193q402 0 402 -352v-492q0 -145 100 -145h31v-146q-39 -20 -86 -20q-154 0 -205 133h-8q-120 -143 -322 -143q-151 0 -239.5 89t-88.5 212zM145 1393l402 254 l403 -254l-76 -121l-327 188l-330 -188zM301 299q0 -69 47.5 -114.5t130.5 -45.5q80 0 145.5 38t102.5 95v224q-126 6 -220.5 -12.5t-150 -65.5t-55.5 -119z" />
<glyph unicode="&#xe3;" horiz-adv-x="1124" d="M100 281q0 187 166 279.5t461 84.5v113q0 119 -54.5 167t-160.5 48q-161 0 -238 -133l-145 112q144 193 387 193q402 0 402 -352v-492q0 -145 100 -145h31v-146q-39 -20 -86 -20q-154 0 -205 133h-8q-120 -143 -322 -143q-151 0 -239.5 89t-88.5 212zM203 1452 q24 34 76.5 67t130.5 33q61 0 158.5 -36.5t136.5 -36.5q50 0 80.5 18t56.5 51l80 -123q-18 -34 -71 -69t-130 -35q-51 0 -152 38t-141 38q-49 0 -82 -16t-63 -52zM301 299q0 -69 47.5 -114.5t130.5 -45.5q80 0 145.5 38t102.5 95v224q-126 6 -220.5 -12.5t-150 -65.5 t-55.5 -119z" />
<glyph unicode="&#xe4;" horiz-adv-x="1124" d="M100 281q0 187 166 279.5t461 84.5v113q0 119 -54.5 167t-160.5 48q-161 0 -238 -133l-145 112q144 193 387 193q402 0 402 -352v-492q0 -145 100 -145h31v-146q-39 -20 -86 -20q-154 0 -205 133h-8q-120 -143 -322 -143q-151 0 -239.5 89t-88.5 212zM225 1458 q0 51 34 85t85 34q52 0 86.5 -34t34.5 -85q0 -50 -34.5 -84.5t-86.5 -34.5q-51 0 -85 34.5t-34 84.5zM301 299q0 -69 47.5 -114.5t130.5 -45.5q80 0 145.5 38t102.5 95v224q-126 6 -220.5 -12.5t-150 -65.5t-55.5 -119zM653 1458q0 51 34 85t85 34q52 0 85.5 -34t33.5 -85 q0 -50 -33.5 -84.5t-85.5 -34.5q-51 0 -85 34.5t-34 84.5z" />
<glyph unicode="&#xe5;" horiz-adv-x="1124" d="M100 281q0 187 166 279.5t461 84.5v113q0 119 -54.5 167t-160.5 48q-161 0 -238 -133l-145 112q144 193 387 193q402 0 402 -352v-492q0 -145 100 -145h31v-146q-39 -20 -86 -20q-154 0 -205 133h-8q-120 -143 -322 -143q-151 0 -239.5 89t-88.5 212zM301 299 q0 -69 47.5 -114.5t130.5 -45.5q80 0 145.5 38t102.5 95v224q-126 6 -220.5 -12.5t-150 -65.5t-55.5 -119zM326 1458q0 102 66.5 168t172.5 66t170 -61t64 -161q0 -102 -67 -168.5t-173 -66.5t-169.5 61t-63.5 162zM444 1466q0 -55 31.5 -87.5t87.5 -32.5t86.5 30.5 t30.5 85.5t-32 88t-89 33q-55 0 -85 -32t-30 -85z" />
<glyph unicode="&#xe6;" horiz-adv-x="1748" d="M72 285q0 65 17 117.5t62 101.5t117.5 82t190 53t272.5 20v97q0 107 -57 162t-166 55q-53 0 -96.5 -12t-74 -34t-48 -40.5t-35.5 -42.5l-133 137q133 164 395 164q268 0 350 -164h8q119 166 336 166q204 0 317 -121.5t113 -331.5q0 -100 -16 -194h-702q13 -184 95 -266 t240 -82q165 0 275 106l100 -147q-134 -127 -397 -127q-157 0 -251 47.5t-146 138.5h-9q-19 -41 -46.5 -73.5t-72 -62t-113.5 -45.5t-157 -16q-96 0 -169 26t-115.5 71t-63 99t-20.5 116zM276 307q0 -73 53.5 -123.5t141.5 -50.5q260 0 260 258v121q-241 0 -348 -46 t-107 -159zM924 655h514q2 16 2 54q0 135 -64.5 203.5t-183.5 68.5q-51 0 -94.5 -17t-81.5 -53.5t-62 -101.5t-30 -154z" />
<glyph unicode="&#xe7;" horiz-adv-x="985" d="M100 549q0 296 134 447t358 151q124 0 211 -38t131 -93l-135 -142q-89 99 -213 99q-277 0 -277 -404q0 -415 277 -415q134 0 211 96l127 -131q-115 -137 -357 -137q-467 0 -467 567zM418 -395q127 57 127 157q0 66 -51 125v9h172q36 -52 36 -134q0 -85 -52.5 -155 t-168.5 -107z" />
<glyph unicode="&#xe8;" horiz-adv-x="1128" d="M100 567q0 144 38.5 256.5t106.5 182t156.5 105.5t192.5 36q201 0 311.5 -120.5t110.5 -326.5q0 -101 -10 -196h-705q9 -185 89 -268.5t243 -83.5q79 0 148.5 27.5t109.5 64.5l90 -152q-142 -108 -373 -108q-254 0 -381 140.5t-127 442.5zM158 1534l188 108l359 -278 l-117 -90zM305 655h514q2 16 2 56q0 270 -239 270q-116 0 -193 -81t-84 -245z" />
<glyph unicode="&#xe9;" horiz-adv-x="1128" d="M100 567q0 144 38.5 256.5t106.5 182t156.5 105.5t192.5 36q201 0 311.5 -120.5t110.5 -326.5q0 -101 -10 -196h-705q9 -185 89 -268.5t243 -83.5q79 0 148.5 27.5t109.5 64.5l90 -152q-142 -108 -373 -108q-254 0 -381 140.5t-127 442.5zM305 655h514q2 16 2 56 q0 270 -239 270q-116 0 -193 -81t-84 -245zM475 1364l359 278l188 -108l-430 -260z" />
<glyph unicode="&#xea;" horiz-adv-x="1128" d="M100 567q0 144 38.5 256.5t106.5 182t156.5 105.5t192.5 36q201 0 311.5 -120.5t110.5 -326.5q0 -101 -10 -196h-705q9 -185 89 -268.5t243 -83.5q79 0 148.5 27.5t109.5 64.5l90 -152q-142 -108 -373 -108q-254 0 -381 140.5t-127 442.5zM162 1393l401 254l404 -254 l-76 -121l-328 188l-330 -188zM305 655h514q2 16 2 56q0 270 -239 270q-116 0 -193 -81t-84 -245z" />
<glyph unicode="&#xeb;" horiz-adv-x="1128" d="M100 567q0 144 38.5 256.5t106.5 182t156.5 105.5t192.5 36q201 0 311.5 -120.5t110.5 -326.5q0 -101 -10 -196h-705q9 -185 89 -268.5t243 -83.5q79 0 148.5 27.5t109.5 64.5l90 -152q-142 -108 -373 -108q-254 0 -381 140.5t-127 442.5zM229 1458q0 51 34 85t85 34 q52 0 86.5 -34t34.5 -85q0 -50 -34.5 -84.5t-86.5 -34.5q-51 0 -85 34.5t-34 84.5zM305 655h514q2 16 2 56q0 270 -239 270q-116 0 -193 -81t-84 -245zM657 1458q0 51 34 85t85 34q52 0 85.5 -34t33.5 -85q0 -50 -33.5 -84.5t-85.5 -34.5q-51 0 -85 34.5t-34 84.5z" />
<glyph unicode="&#xec;" horiz-adv-x="595" d="M-119 1534l189 108l358 -278l-117 -90zM201 0v1126h202v-1126h-202z" />
<glyph unicode="&#xed;" horiz-adv-x="595" d="M164 1364l358 278l189 -108l-430 -260zM201 0v1126h202v-1126h-202z" />
<glyph unicode="&#xee;" horiz-adv-x="595" d="M-104 1393l401 254l403 -254l-75 -121l-328 188l-330 -188zM201 0v1126h202v-1126h-202z" />
<glyph unicode="&#xef;" horiz-adv-x="595" d="M-35 1458q0 51 34 85t85 34q52 0 86.5 -34t34.5 -85q0 -50 -34.5 -84.5t-86.5 -34.5q-51 0 -85 34.5t-34 84.5zM201 0v1126h202v-1126h-202zM393 1458q0 51 34 85t85 34q52 0 85.5 -34t33.5 -85q0 -50 -33.5 -84.5t-85.5 -34.5q-51 0 -85 34.5t-34 84.5z" />
<glyph unicode="&#xf0;" horiz-adv-x="1095" d="M92 444q0 115 36 207t96.5 148t136 85t159.5 29q112 0 209 -41l4 2q-47 140 -145 259l-320 -162v139l226 117q-107 92 -293 192v17h293q96 -57 170 -129l272 137v-139l-184 -97q104 -132 165.5 -296.5t61.5 -346.5q0 -272 -118 -422.5t-339 -150.5q-196 0 -313 120.5 t-117 331.5zM291 459q0 -145 68 -220t182 -75q250 0 250 364q0 78 -15 158q-37 25 -100.5 44.5t-128.5 19.5q-256 0 -256 -291z" />
<glyph unicode="&#xf1;" horiz-adv-x="1198" d="M162 0v1126h155l41 -114h9q42 51 125.5 95t189.5 44q170 0 263.5 -94t96.5 -279v-778h-202v733q0 116 -56 179t-161 63q-91 0 -160 -51t-98 -131v-793h-203zM240 1452q24 35 76 67.5t130 32.5q61 0 158.5 -36.5t136.5 -36.5q51 0 81.5 18t56.5 51l79 -123 q-19 -34 -71 -69t-129 -35q-51 0 -152 38t-141 38q-90 0 -146 -68z" />
<glyph unicode="&#xf2;" horiz-adv-x="1163" d="M100 559q0 134 27 239.5t84.5 184.5t152.5 121.5t224 42.5q130 0 223.5 -41t148 -119t79 -180.5t24.5 -237.5q0 -134 -27 -239t-84.5 -184.5t-152.5 -121.5t-224 -42q-131 0 -224 40.5t-147.5 119t-79 180.5t-24.5 237zM156 1534l188 108l358 -278l-116 -90zM309 571 q0 -214 66.5 -317.5t212.5 -103.5q144 0 205 98t61 309q0 216 -66 319t-213 103q-140 0 -203 -99.5t-63 -308.5z" />
<glyph unicode="&#xf3;" horiz-adv-x="1163" d="M100 559q0 134 27 239.5t84.5 184.5t152.5 121.5t224 42.5q130 0 223.5 -41t148 -119t79 -180.5t24.5 -237.5q0 -134 -27 -239t-84.5 -184.5t-152.5 -121.5t-224 -42q-131 0 -224 40.5t-147.5 119t-79 180.5t-24.5 237zM309 571q0 -214 66.5 -317.5t212.5 -103.5 q144 0 205 98t61 309q0 216 -66 319t-213 103q-140 0 -203 -99.5t-63 -308.5zM457 1364l358 278l189 -108l-431 -260z" />
<glyph unicode="&#xf4;" horiz-adv-x="1163" d="M100 559q0 134 27 239.5t84.5 184.5t152.5 121.5t224 42.5q130 0 223.5 -41t148 -119t79 -180.5t24.5 -237.5q0 -134 -27 -239t-84.5 -184.5t-152.5 -121.5t-224 -42q-131 0 -224 40.5t-147.5 119t-79 180.5t-24.5 237zM178 1393l402 254l403 -254l-76 -121l-327 188 l-330 -188zM309 571q0 -214 66.5 -317.5t212.5 -103.5q144 0 205 98t61 309q0 216 -66 319t-213 103q-140 0 -203 -99.5t-63 -308.5z" />
<glyph unicode="&#xf5;" horiz-adv-x="1163" d="M100 559q0 134 27 239.5t84.5 184.5t152.5 121.5t224 42.5q130 0 223.5 -41t148 -119t79 -180.5t24.5 -237.5q0 -134 -27 -239t-84.5 -184.5t-152.5 -121.5t-224 -42q-131 0 -224 40.5t-147.5 119t-79 180.5t-24.5 237zM221 1452q24 34 76.5 67t130.5 33 q61 0 158.5 -36.5t136.5 -36.5q50 0 80.5 18t56.5 51l80 -123q-18 -34 -71 -69t-130 -35q-51 0 -152 38t-141 38q-49 0 -82 -16t-63 -52zM309 571q0 -214 66.5 -317.5t212.5 -103.5q144 0 205 98t61 309q0 216 -66 319t-213 103q-140 0 -203 -99.5t-63 -308.5z" />
<glyph unicode="&#xf6;" horiz-adv-x="1163" d="M100 559q0 134 27 239.5t84.5 184.5t152.5 121.5t224 42.5q130 0 223.5 -41t148 -119t79 -180.5t24.5 -237.5q0 -134 -27 -239t-84.5 -184.5t-152.5 -121.5t-224 -42q-131 0 -224 40.5t-147.5 119t-79 180.5t-24.5 237zM248 1458q0 51 34 85t85 34q52 0 86 -34t34 -85 q0 -50 -34 -84.5t-86 -34.5q-51 0 -85 34.5t-34 84.5zM309 571q0 -214 66.5 -317.5t212.5 -103.5q144 0 205 98t61 309q0 216 -66 319t-213 103q-140 0 -203 -99.5t-63 -308.5zM676 1458q0 51 34 85t85 34q52 0 85 -34t33 -85q0 -50 -33 -84.5t-85 -34.5q-51 0 -85 34.5 t-34 84.5z" />
<glyph unicode="&#xf7;" horiz-adv-x="1091" d="M59 616v170h973v-170h-973zM410 326q0 57 38.5 96t94.5 39q58 0 96.5 -39t38.5 -96q0 -55 -38.5 -93t-96.5 -38q-55 0 -94 38.5t-39 92.5zM410 1075q0 55 39 94t94 39q58 0 96.5 -38.5t38.5 -94.5t-38.5 -94.5t-96.5 -38.5q-55 0 -94 39t-39 94z" />
<glyph unicode="&#xf8;" horiz-adv-x="1163" d="M100 559q0 134 27 239.5t84.5 184.5t152.5 121.5t224 42.5q155 0 258 -62l43 62h172v-6l-103 -154q105 -139 105 -418q0 -134 -27 -239t-84.5 -184.5t-152.5 -121.5t-224 -42q-158 0 -256 61l-43 -63h-174v8l105 151q-107 144 -107 420zM305 571q0 -143 35 -233l399 590 q-60 51 -164 51q-141 0 -205.5 -100t-64.5 -308zM426 199q58 -49 162 -49q145 0 207.5 98.5t62.5 308.5q0 144 -35 231z" />
<glyph unicode="&#xf9;" horiz-adv-x="1200" d="M156 360v766h202v-733q0 -248 222 -248q113 0 182.5 64t75.5 168v749h202v-1126h-166l-32 113h-8q-43 -53 -121.5 -94.5t-194.5 -41.5q-356 0 -362 383zM166 1534l188 108l359 -278l-117 -90z" />
<glyph unicode="&#xfa;" horiz-adv-x="1200" d="M156 360v766h202v-733q0 -248 222 -248q113 0 182.5 64t75.5 168v749h202v-1126h-166l-32 113h-8q-43 -53 -121.5 -94.5t-194.5 -41.5q-356 0 -362 383zM496 1364l358 278l188 -108l-430 -260z" />
<glyph unicode="&#xfb;" horiz-adv-x="1200" d="M156 360v766h202v-733q0 -248 222 -248q113 0 182.5 64t75.5 168v749h202v-1126h-166l-32 113h-8q-43 -53 -121.5 -94.5t-194.5 -41.5q-356 0 -362 383zM199 1393l401 254l404 -254l-76 -121l-328 188l-330 -188z" />
<glyph unicode="&#xfc;" horiz-adv-x="1200" d="M156 360v766h202v-733q0 -248 222 -248q113 0 182.5 64t75.5 168v749h202v-1126h-166l-32 113h-8q-43 -53 -121.5 -94.5t-194.5 -41.5q-356 0 -362 383zM266 1458q0 51 34 85t85 34q52 0 86.5 -34t34.5 -85q0 -50 -34.5 -84.5t-86.5 -34.5q-51 0 -85 34.5t-34 84.5z M694 1458q0 51 34 85t85 34q52 0 85.5 -34t33.5 -85q0 -50 -33.5 -84.5t-85.5 -34.5q-51 0 -85 34.5t-34 84.5z" />
<glyph unicode="&#xfd;" horiz-adv-x="1048" d="M35 1126h223l166 -501q70 -212 119 -406h8q28 154 104 406l156 501h209l-391 -1198q-27 -83 -61.5 -145t-84 -111.5t-119 -75.5t-157.5 -26t-146 24l35 175q56 -23 111 -23q96 0 153.5 55t85.5 172zM434 1364l359 278l188 -108l-430 -260z" />
<glyph unicode="&#xfe;" horiz-adv-x="1167" d="M162 -391v1937h198v-510h9q35 40 105.5 72.5t166.5 32.5q92 0 168 -32.5t134 -97t90 -169t32 -240.5q0 -291 -140.5 -453.5t-381.5 -162.5q-101 0 -181 22v-399h-200zM360 188q72 -30 177 -30q151 0 236 104.5t85 321.5q0 107 -23 185t-63 120.5t-87.5 62t-104.5 19.5 q-61 0 -122.5 -29.5t-97.5 -79.5v-674z" />
<glyph unicode="&#xff;" horiz-adv-x="1048" d="M35 1126h223l166 -501q70 -212 119 -406h8q28 154 104 406l156 501h209l-391 -1198q-27 -83 -61.5 -145t-84 -111.5t-119 -75.5t-157.5 -26t-146 24l35 175q56 -23 111 -23q96 0 153.5 55t85.5 172zM190 1458q0 51 34 85t85 34q52 0 86.5 -34t34.5 -85q0 -50 -34.5 -84.5 t-86.5 -34.5q-51 0 -85 34.5t-34 84.5zM618 1458q0 51 34 85t85 34q52 0 85.5 -34t33.5 -85q0 -50 -33.5 -84.5t-85.5 -34.5q-51 0 -85 34.5t-34 84.5z" />
<glyph unicode="&#x152;" horiz-adv-x="1988" d="M117 711q0 193 42 337.5t121 233t185 131.5t240 43q270 0 382 -168h5v148h768v-179h-586v-440h512v-178h-512v-461h614v-178h-796v164h-5q-109 -184 -401 -184q-134 0 -236.5 40t-178 125.5t-115 227.5t-39.5 338zM328 727q0 -567 374 -567q85 0 149.5 28t113.5 90.5 t74.5 171t25.5 261.5q0 155 -26.5 266t-77.5 175.5t-117 94t-152 29.5q-67 0 -121 -16.5t-100.5 -56t-77 -101.5t-48 -156.5t-17.5 -218.5z" />
<glyph unicode="&#x153;" horiz-adv-x="1882" d="M100 559q0 134 27 239t83.5 184.5t151.5 122t224 42.5q269 0 368 -199h11q59 99 156.5 149t221.5 50q206 0 318.5 -121.5t112.5 -331.5q0 -94 -17 -194h-700v-13q17 -178 99 -256.5t235 -78.5q164 0 274 106l100 -147q-134 -127 -397 -127q-297 0 -407 200h-9 q-55 -99 -143.5 -150.5t-233.5 -51.5q-131 0 -224 40.5t-147.5 119t-79 180.5t-24.5 237zM309 571q0 -213 67.5 -317t213.5 -104t207 98.5t61 318.5q0 412 -285 412q-142 0 -203 -99t-61 -309zM1057 655h514q2 16 2 54q0 135 -63.5 203.5t-182.5 68.5q-106 0 -179 -73 t-89 -238q0 -2 -1 -8t-1 -7z" />
<glyph unicode="&#x178;" horiz-adv-x="1159" d="M-2 1436h233l349 -723h8l350 723h223l-479 -934v-502h-205v502zM246 1776q0 51 34 84.5t85 33.5q52 0 86 -33.5t34 -84.5q0 -50 -34 -84.5t-86 -34.5q-51 0 -85 34.5t-34 84.5zM674 1776q0 51 34 84.5t85 33.5q52 0 85 -33.5t33 -84.5q0 -50 -33 -84.5t-85 -34.5 q-51 0 -85 34.5t-34 84.5z" />
<glyph unicode="&#x2c6;" horiz-adv-x="1032" d="M113 1393l401 254l404 -254l-76 -121l-328 188l-330 -188z" />
<glyph unicode="&#x2dc;" horiz-adv-x="1032" d="M156 1452q24 35 76 67.5t130 32.5q61 0 158.5 -36.5t136.5 -36.5q51 0 81.5 18t56.5 51l79 -123q-19 -34 -71 -69t-129 -35q-51 0 -152 38t-141 38q-49 0 -82 -16t-63 -52z" />
<glyph unicode="&#x2000;" horiz-adv-x="1004" />
<glyph unicode="&#x2001;" horiz-adv-x="2009" />
<glyph unicode="&#x2002;" horiz-adv-x="1004" />
<glyph unicode="&#x2003;" horiz-adv-x="2009" />
<glyph unicode="&#x2004;" horiz-adv-x="669" />
<glyph unicode="&#x2005;" horiz-adv-x="502" />
<glyph unicode="&#x2006;" horiz-adv-x="334" />
<glyph unicode="&#x2007;" horiz-adv-x="334" />
<glyph unicode="&#x2008;" horiz-adv-x="251" />
<glyph unicode="&#x2009;" horiz-adv-x="401" />
<glyph unicode="&#x200a;" horiz-adv-x="111" />
<glyph unicode="&#x2010;" horiz-adv-x="712" d="M47 537v174h619v-174h-619z" />
<glyph unicode="&#x2011;" horiz-adv-x="712" d="M47 537v174h619v-174h-619z" />
<glyph unicode="&#x2012;" horiz-adv-x="712" d="M47 537v174h619v-174h-619z" />
<glyph unicode="&#x2013;" horiz-adv-x="880" d="M0 537v174h881v-174h-881z" />
<glyph unicode="&#x2014;" horiz-adv-x="1427" d="M0 537v174h1427v-174h-1427z" />
<glyph unicode="&#x2018;" horiz-adv-x="544" d="M78 1114q0 76 27.5 144t72.5 117.5t96.5 83.5t104.5 52l47 -90q-85 -31 -131.5 -83.5t-46.5 -108.5q0 -30 10 -53.5t38.5 -46t41 -30.5t56.5 -31q8 -5 12 -7v-10q0 -63 -41.5 -106.5t-106.5 -43.5q-80 0 -130 58.5t-50 154.5z" />
<glyph unicode="&#x2019;" horiz-adv-x="544" d="M119 993q85 31 131.5 84t46.5 109q0 30 -11.5 54t-34.5 43t-45 32.5t-55 30.5l-12 6v12q0 63 42 105t108 42q79 0 128.5 -57.5t49.5 -153.5q0 -76 -27.5 -144t-72.5 -117.5t-96.5 -84t-104.5 -53.5z" />
<glyph unicode="&#x201a;" horiz-adv-x="526" d="M74 -211q79 33 124.5 81t45.5 103q0 52 -31 86t-94 62v18q0 60 40 100t103 40q75 0 121.5 -54.5t46.5 -146.5t-45 -175t-110 -136t-138 -78z" />
<glyph unicode="&#x201c;" horiz-adv-x="993" d="M78 1114q0 76 27.5 144t72.5 117.5t96.5 83.5t104.5 52l47 -90q-85 -31 -131.5 -83.5t-46.5 -108.5q0 -30 10 -53.5t38.5 -46t41 -30.5t56.5 -31q8 -5 12 -7v-10q0 -63 -41.5 -106.5t-106.5 -43.5q-80 0 -130 58.5t-50 154.5zM526 1114q0 75 27.5 143.5t72.5 118t96 83.5 t103 52l49 -90q-86 -31 -133 -83.5t-47 -108.5q0 -30 10 -53.5t38.5 -46t41 -30.5t56.5 -31q8 -5 12 -7v-10q0 -63 -40.5 -106.5t-106.5 -43.5q-79 0 -129 58.5t-50 154.5z" />
<glyph unicode="&#x201d;" horiz-adv-x="993" d="M119 993q85 31 131.5 84t46.5 109q0 30 -11.5 54t-34.5 43t-45 32.5t-55 30.5l-12 6v12q0 63 42 105t108 42q79 0 128.5 -57.5t49.5 -153.5q0 -76 -27.5 -144t-72.5 -117.5t-96.5 -84t-104.5 -53.5zM567 993q85 31 131.5 84t46.5 109q0 24 -8.5 45t-20 35t-33.5 30 t-37 24.5t-43 23.5q-10 5 -15 8v12q0 63 40.5 105t106.5 42q80 0 129 -57.5t49 -153.5q0 -76 -27.5 -144t-72 -117.5t-95.5 -84t-104 -53.5z" />
<glyph unicode="&#x201e;" horiz-adv-x="972" d="M72 -211q79 33 124.5 81t45.5 103q0 52 -31 86t-94 62v18q0 59 40.5 99.5t102.5 40.5q75 0 121.5 -54.5t46.5 -146.5q0 -135 -89 -242.5t-202 -146.5zM520 -211q79 33 124.5 81t45.5 103q0 52 -31 86t-94 62v18q0 59 40.5 99.5t103.5 40.5q75 0 121.5 -54.5t46.5 -146.5 t-45 -175t-110 -136t-138 -78z" />
<glyph unicode="&#x2022;" horiz-adv-x="929" d="M193 723q0 115 77 192.5t195 77.5q119 0 195.5 -77.5t76.5 -192.5q0 -114 -77.5 -192t-192.5 -78q-122 0 -198 77t-76 193z" />
<glyph unicode="&#x2026;" horiz-adv-x="1662" d="M98 139q0 64 43 108t103 44q64 0 107.5 -43.5t43.5 -108.5q0 -60 -43.5 -102.5t-107.5 -42.5q-60 0 -103 42.5t-43 102.5zM682 139q0 64 42.5 108t102.5 44q65 0 108.5 -43.5t43.5 -108.5q0 -60 -44 -102.5t-108 -42.5q-60 0 -102.5 42.5t-42.5 102.5zM1268 139 q0 64 42.5 108t102.5 44q65 0 108.5 -43.5t43.5 -108.5q0 -60 -44 -102.5t-108 -42.5q-60 0 -102.5 42.5t-42.5 102.5z" />
<glyph unicode="&#x202f;" horiz-adv-x="401" />
<glyph unicode="&#x2039;" horiz-adv-x="636" d="M86 561l342 461l131 -102l-256 -359l256 -358l-131 -101z" />
<glyph unicode="&#x203a;" horiz-adv-x="636" d="M86 203l256 358l-256 359l131 102l342 -461l-342 -459z" />
<glyph unicode="&#x205f;" horiz-adv-x="502" />
<glyph unicode="&#x20ac;" horiz-adv-x="1228" d="M74 481v154h155v145h-155v154h174q45 242 183.5 373t367.5 131q257 0 381 -131l-131 -160q-34 33 -63 53.5t-84.5 38.5t-123.5 18q-131 0 -218.5 -81t-117.5 -242h476l-41 -154h-449v-67q0 -55 2 -78h412l-39 -154h-354q58 -319 346 -319q64 0 118 18.5t79.5 37 t58.5 48.5l112 -149q-129 -135 -393 -135q-450 0 -526 499h-170z" />
<glyph unicode="&#x2122;" horiz-adv-x="1257" d="M10 1339v97h447v-97h-160v-469h-119v469h-168zM547 868v568h174l135 -394l129 394h174v-568h-112v262l6 185h-9l-141 -397h-98l-141 401h-9l4 -180v-271h-112z" />
<glyph unicode="&#x25fc;" horiz-adv-x="1126" d="M0 0v1126h1126v-1126h-1126z" />
<glyph unicode="&#xfb03;" horiz-adv-x="1904" d="M51 977v149h185v115q0 338 442 338q95 0 192 -20t152 -50q112 70 311 70q110 0 214.5 -17t160.5 -46l-51 -156q-53 21 -146.5 37t-193.5 16q-125 0 -175 -44t-50 -136v-107h651v-1126h-203v977h-450v-977h-203v977h-453v-977h-203v977h-180zM438 1126h451v115 q0 71 22 135q-113 37 -247 37q-127 0 -176.5 -44t-49.5 -136v-107z" />
<glyph unicode="&#xfb04;" horiz-adv-x="1976" d="M51 977v149h185v115q0 338 442 338q95 0 192 -20t152 -50q112 70 311 70q139 0 248 -23.5t162 -56.5v-1206q0 -70 26.5 -101.5t83.5 -31.5q35 0 78 16v-166q-63 -26 -141 -26q-122 0 -186 67.5t-64 188.5v1151q-96 22 -221 22q-127 0 -177 -44t-50 -136v-107h239v-149 h-241v-977h-203v977h-453v-977h-203v977h-180zM438 1126h451v115q0 71 22 135q-113 37 -247 37q-127 0 -176.5 -44t-49.5 -136v-107z" />
</font>
</defs>
</svg>
